<?xml version="1.0" encoding="UTF-8" standalone="no"?>
<svg
   xmlns:dc="http://purl.org/dc/elements/1.1/"
   xmlns:cc="http://creativecommons.org/ns#"
   xmlns:rdf="http://www.w3.org/1999/02/22-rdf-syntax-ns#"
   xmlns:svg="http://www.w3.org/2000/svg"
   xmlns="http://www.w3.org/2000/svg"
   xmlns:xlink="http://www.w3.org/1999/xlink"
   xmlns:sodipodi="http://sodipodi.sourceforge.net/DTD/sodipodi-0.dtd"
   xmlns:inkscape="http://www.inkscape.org/namespaces/inkscape"
   width="700"
   height="700"
   version="1.1"
   id="svg9"
   sodipodi:docname="h-m-logo.svg"
   inkscape:version="0.92.3 (2405546, 2018-03-11)"
   inkscape:export-filename="C:\Users\alex\sites\h-m-logo-0.png"
   inkscape:export-xdpi="561.73712"
   inkscape:export-ydpi="561.73712">
  <metadata
     id="metadata13">
    <rdf:RDF>
      <cc:Work
         rdf:about="">
        <dc:format>image/svg+xml</dc:format>
        <dc:type
           rdf:resource="http://purl.org/dc/dcmitype/StillImage" />
        <dc:title>1. Foundation/Logotypes/H&amp;M/Red</dc:title>
      </cc:Work>
    </rdf:RDF>
  </metadata>
  <sodipodi:namedview
     pagecolor="#ffffff"
     bordercolor="#666666"
     borderopacity="1"
     objecttolerance="10"
     gridtolerance="10"
     guidetolerance="10"
     inkscape:pageopacity="0"
     inkscape:pageshadow="2"
     inkscape:window-width="1600"
     inkscape:window-height="838"
     id="namedview11"
     showgrid="false"
     inkscape:zoom="0.48360656"
     inkscape:cx="705.87342"
     inkscape:cy="280.04851"
     inkscape:window-x="-8"
     inkscape:window-y="-8"
     inkscape:window-maximized="1"
     inkscape:current-layer="svg9" />
  <title
     id="title2">1. Foundation/Logotypes/H&amp;M/Red</title>
  <defs
     id="defs5">
    <path
       d="m 259.895,7.413 c 13.424,-6.618 20.087,-5.737 20.232,0.946 0.19,8.7 -1.098,20.23 -2.016,28.604 -4.983,45.423 -13.32,82.543 -13.954,129.19 21.94,-56.802 40.345,-96.278 64.03,-144.909 7.53,-15.47 12.325,-12.593 18.503,-15.343 24.082,-10.715 24.984,-4.133 21.837,8.95 -11.686,48.552 -41.54,201.376 -46.114,224.907 -1.328,6.807 -8.715,3.923 -10.644,1.26 -8.57,-11.85 -18.225,-12.036 -17.14,-19.919 5.37,-39.233 24.71,-137.666 29.75,-160.863 -25.719,52.696 -52.37,118.566 -66.053,155.914 -2.907,7.931 -8.188,7.35 -11.48,1.546 -4.63,-8.15 -13.61,-12.312 -15.093,-21.943 -4.702,-30.628 5.37,-89.003 6.773,-125.936 -13.994,40.342 -37.49,118.67 -47.782,154.057 -4.256,14.643 -18.382,12.253 -14.627,-2.018 15.642,-59.389 49.326,-164.425 63.915,-202.198 3.427,-8.874 12.406,-8.569 19.863,-12.245 z M 174.6,0.115 c 4.26,1.025 3.913,6.05 1.31,12.912 -7.682,20.247 -18.335,46.847 -30.516,78.212 7.658,-0.874 11.811,-1.17 11.811,-1.17 10.994,-1.358 13.041,4.139 9.946,9.99 -2.466,4.664 -5.436,1.554 -15.724,16.89 -5.796,8.642 -15.259,10.924 -20.515,12.076 -12.662,33.523 -26.23,70.916 -39.415,110.77 -1.919,5.804 -7.524,4.532 -9.209,2.174 -6.192,-8.647 -10.758,-8.933 -15.558,-15.927 -0.577,-1.132 -1.706,-2.672 -1.027,-5.448 3.53,-14.425 12.901,-44.067 27.156,-83.091 -17.958,3.892 -37.387,8.076 -45.408,9.94 -9.626,25.445 -19.014,50.967 -27.908,76.18 -5.518,15.64 -19.88,12.617 -14.84,-2.165 8.028,-23.548 16.89,-48.004 25.776,-71.72 -9.948,-1.063 -13.313,-8.088 -18.873,-13.958 -2.147,-2.267 -6.828,-1.948 -9.12,-5.127 -4.123,-5.711 -3.712,-8.248 5.81,-10.996 A 955.318,955.318 0 0 1 45.76,109.659 C 61.85,68.135 76.39,32.515 84.14,13.508 90.114,-1.138 105.514,0.226 99.664,14.674 87.775,44.037 75.585,74.541 63.554,105.473 a 880.98,880.98 0 0 1 44.748,-8.87 2312.644,2312.644 0 0 1 34.62,-83.968 c 0.845,-1.937 3.31,-4.678 5.878,-5.118 8.092,-1.385 21.251,-8.498 25.8,-7.402 z m -27.552,190.077 c 1.265,-0.773 2.524,-1.715 3.767,-2.75 a 756.514,756.514 0 0 1 -2.82,-8.468 139.528,139.528 0 0 0 -2.752,3.638 c -5.386,7.396 -2.197,10.028 1.805,7.58 z m 7.167,-35.065 c 6.67,-7.53 -6.516,-10.681 -3.48,0.836 0.17,0.65 0.382,1.413 0.62,2.254 a 98.19,98.19 0 0 0 2.86,-3.09 z m 6.941,22.695 c 6.602,-5.721 12.908,-0.046 6.38,9.628 -1.404,2.08 -2.99,4.318 -4.729,6.522 a 193.17,193.17 0 0 0 2.146,5.877 c 3.375,8.654 -5.488,10.824 -8.345,3.656 -0.25,-0.626 -0.51,-1.297 -0.778,-1.995 -5.387,4.772 -11.618,7.777 -18.275,5.707 -10.954,-3.407 -13.74,-18.83 -3.514,-30.711 4.103,-4.767 7.191,-8.074 9.771,-10.716 a 251.947,251.947 0 0 1 -1.819,-6.17 c -1.328,-4.81 -2.527,-10.416 2.287,-16.13 9.027,-10.712 29.971,-1.203 19.377,15.289 -2.552,3.972 -5.535,7.724 -8.647,11.527 a 979.555,979.555 0 0 0 3.26,10.18 78.304,78.304 0 0 1 2.886,-2.664 z"
       id="prefix__a"
       inkscape:connector-curvature="0" />
  </defs>
  <use
     xlink:href="#prefix__a"
     id="use7"
     style="fill:#d6001c;fill-rule:evenodd"
     x="0"
     y="0"
     width="100%"
     height="100%"
     transform="matrix(1.3220815,0,0,1.3220815,105.52689,188.72897)"
     inkscape:export-filename="C:\Users\alex\sites\h-m-logo-4.png"
     inkscape:export-xdpi="78.536682"
     inkscape:export-ydpi="78.536682" />
</svg>
